<?xml version="1.0" encoding="utf-8"?>
<!-- Generator: Adobe Illustrator 27.8.1, SVG Export Plug-In . SVG Version: 6.00 Build 0)  -->
<svg version="1.1" xmlns="http://www.w3.org/2000/svg" xmlns:xlink="http://www.w3.org/1999/xlink" x="0px" y="0px"
	 viewBox="0 0 36.7 36" style="enable-background:new 0 0 36.7 36;" xml:space="preserve">

<g id="plants">
	<g>
		<g>
			<path d="M35.7,20.6c-1.1-4.4-3.2-8.2-3.6-8.8c-0.1-0.5-0.1-1.1-0.2-1.6c-0.2-1.8-0.3-3.6-1.2-4.9c1-0.9,1.3-1.9,1.3-2.5
				C32.2,1.2,31,0,29.4,0c-0.8,0-1.6,0.7-1.6,1.5c0,0.7,0.4,1.3,1.2,1.4c0.6,0.1,1.2-0.5,1.3-1.2c0.8,0.5,0.7,1.6-0.3,2.7
				c0,0-0.1-0.1-0.1-0.1c-0.6-0.5-1.5-0.8-2.4-0.8c-1.5,0-2.7,0.7-3.3,2l-2.7,0c-0.2,0-0.3,0.2-0.1,0.4l2.5,1.5
				c0.1,0.5,0.2,0.9,0.4,1.3c0.5,1.1,1,2.5-0.6,6.4c-0.5,1.1-3.4,7.2-5.2,9.9c-1.5,2.3-3.7,3.5-6.2,3.5c-0.5,0-0.9,0-1.4-0.1
				c-0.7-0.1-1.3-0.3-1.6-0.3c-0.3-0.1-0.4-0.1-0.5-0.1H8.4l-0.1,0.4c-0.1,0.5,0.2,0.6,0.6,0.8c0.2,0.1,0.5,0.3,0.9,0.5
				c0.9,0.5,5.7,1.9,7.8,2.3c0.4,0.1,1.3,0.6,2.1,1.1c2,1.2,4.7,2.9,7.8,2.9c1.6,0,3.2-0.5,4.6-1.4C36.2,32,37.4,27.1,35.7,20.6z
				 M27.4,7.3l-1-0.7l0.4-1.1h0.6h0.6l0.4,1.1L27.4,7.3z"/>
		</g>
		<g>
			<g>
				<path d="M22.7,8.2l-2,0.6c-0.6-0.6-1.3-1-2.1-1h0c-0.1,0-0.2,0-0.3,0c-0.6-0.4-0.8-0.9-0.5-1.4c0.4,0.5,1.1,0.6,1.5,0.3
					c0.5-0.4,0.5-1.1,0.2-1.6c-0.3-0.6-1.2-0.7-1.8-0.3c-1.1,0.7-1.5,2.2-0.6,3.3c0,0,0,0,0,0c-1,0.4-1.5,1.2-1.9,2
					c-0.6,1.1-1.4,2.4-4.5,3.3c-0.4,0.1-1.2,0.2-2,0.2c-1.7,0-3.6-0.3-4.5-0.7c-1-0.4-1.6-0.9-2.3-1.4c-0.3-0.2-0.6-0.4-0.9-0.7
					c0,0-0.2-0.1-0.4-0.1H0.3l-0.2,0.3c-0.1,0.3-0.3,0.5,1.5,3c0.1,0.2,0.2,0.3,0.4,0.5c0.7,1,1.5,2,2.7,5.3
					c1.4,4.1,4.4,5.7,6.7,5.9c0.2,0,0.5,0,0.7,0c2.2,0,3.9-1.1,5.8-3.9c2-2.8,3.8-8.1,3.9-8.5c0.4-0.9,0.3-2.1-0.1-3.1l1.3-1.7
					C23,8.3,22.9,8.2,22.7,8.2z M19.5,10.4c-0.3,0.3-0.7,0.3-1,0c-0.3-0.3-0.3-0.7,0-1c0.3-0.3,0.7-0.3,1,0
					C19.8,9.7,19.8,10.2,19.5,10.4z"/>
			</g>
		</g>
	</g>
</g>
</svg>
