<?xml version="1.0" encoding="UTF-8"?>
<svg id="b" data-name="plants" xmlns="http://www.w3.org/2000/svg" viewBox="0 0 25.98 36.12">
  <defs>
    <style>
      .g {
        fill: #fff;
        stroke-width: 0px;
      }
    </style>
  </defs>
  <g>
    <polygon class="g" points="7.69 28.61 7.35 28.61 7.02 28.61 6.8 29.25 7.35 29.65 7.91 29.25 7.69 28.61"/>
    <path class="g" d="M24.82,33.78h-2.26c-.93,0-1.3-.3-1.3-.65,0-.39.37-.51.81-.69.28.45.77.73,1.37.73.9,0,1.53-.75,1.53-1.54,0-.27-.04-.52-.13-.73l-.08-.16.82-.49-.3-.5-.83.57s.01,0,.02.01h0s-.02-.01-.02-.01c-.26-.23-.61-.35-1.02-.35-.97,0-1.62.79-1.62,1.59,0,.15.02.3.05.44-.64.22-1.11.58-1.11,1.13,0,.64.58,1.15,1.32,1.15h2.74c.37,0,.67.3.67.67s-.3.67-.67.67h-3.04v.5h3.04c.64,0,1.16-.52,1.16-1.17s-.52-1.17-1.16-1.17ZM23.43,30.47c.67,0,1.03.55,1.03,1.12s-.37,1.09-1.03,1.09-1.1-.52-1.1-1.09.36-1.12,1.1-1.12Z"/>
    <path class="g" d="M11.71,30.21c.92-.55,2.19-.1,2.82.96l.1.17-3.25,1.93c.49.83,1.54,1.13,2.36.64.71-.42,1.11-1.12,1.04-2.04h.49c.03,1.26-.52,2.01-1.28,2.46-1,.59-2.38.27-3.06-.87-.77-1.3-.25-2.65.78-3.26ZM11.96,30.63c-.85.51-1.1,1.52-.81,2.2l2.78-1.65c-.39-.51-1.27-.97-1.97-.55Z"/>
    <path class="g" d="M16.82,31.76l.35-.21.56-.33.67-.39.34-.2s.05,0,.07,0c.29,0,.53.25.53.56v2.81h-.77v.51h2.08v-.51h-.78v-2.73c0-.52-.2-.85-.47-1.04-.14-.1-.31-.17-.46-.21-.04,0-.09-.01-.14-.01-.04,0-.08,0-.11,0l-.75.44-.95.56-.18.1v-.21c.03-.76-.33-.94-.7-.94-.33,0-.52.2-.83.65l-.02.02-.1.14.44.25c.07-.09.12-.17.17-.23.18-.24.25-.32.34-.32.12,0,.19.08.19.36v3.16h-.79v.51h2.09v-.5h-.79v-2.24Z"/>
    <circle class="g" cx="3.07" cy="29.13" r=".52"/>
    <path class="g" d="M3.31,33.09v-3.13h-.5l-2.25,1.05v.55l2.25-1.05v2.53c-1.11-.07-1.95.16-2.42.66-.34.36-.47.86-.34,1.36.16.61.86,1.05,1.62,1.05.08,0,.17,0,.25-.02.67-.08,1.39-.58,1.39-1.72v-.79c.12.02.24.04.37.06l.28-.46c-.22-.04-.44-.08-.65-.11ZM2.81,34.39c0,.96-.6,1.18-.95,1.22-.6.08-1.22-.24-1.33-.67-.09-.34,0-.65.22-.9.32-.34.91-.52,1.69-.52.12,0,.24,0,.37.01v.84Z"/>
    <path class="g" d="M8.23,33.2c-.22-.04-.44-.08-.65-.11v-3.13h-.5l-2.25,1.05v.55l2.25-1.05v2.53c-1.11-.07-1.95.16-2.42.66-.34.36-.47.86-.34,1.36.16.61.86,1.05,1.62,1.05.08,0,.17,0,.25-.02.67-.08,1.39-.58,1.39-1.72v-.79c.12.02.24.04.37.06l.28-.46h0ZM7.09,34.39c0,.96-.6,1.18-.95,1.22-.6.08-1.22-.24-1.33-.67-.09-.34,0-.65.22-.9.32-.34.91-.52,1.69-.52.12,0,.24,0,.37.01v.84Z"/>
  </g>
  <g>
    <path class="g" d="M25.47,14.83c-.81-3.16-2.28-5.81-2.56-6.29-.05-.38-.09-.78-.12-1.16-.12-1.25-.24-2.53-.84-3.48.7-.67.92-1.32.94-1.76.07-1.15-.83-2.04-1.94-2.01-.58.02-1.13.52-1.11,1.07.01.47.32.94.86.99.45.04.87-.35.92-.88.57.33.52,1.16-.24,1.94-.02-.02-.04-.04-.07-.06-.41-.33-1.08-.54-1.73-.54-1.06,0-1.9.53-2.33,1.46l-1.93-.03c-.18,0-.23.17-.08.26l1.78,1.04c.04.33.16.62.28.9.33.8.74,1.79-.45,4.53-.34.78-2.39,5.12-3.68,7.08-1.07,1.63-2.64,2.52-4.41,2.52-.32,0-.66-.03-.99-.09-.53-.09-.89-.18-1.11-.23-.19-.05-.26-.06-.33-.06h-.32l-.09.31c-.08.32.16.46.42.6.14.08.35.19.63.36.64.38,4.08,1.38,5.58,1.62.31.05.89.41,1.51.79,1.42.88,3.36,2.08,5.57,2.08,1.16,0,2.27-.34,3.31-1.02,2.85-1.87,3.73-5.3,2.55-9.93ZM19.5,5.31l-.7-.5.28-.8h.83l.28.8-.7.5Z"/>
    <path class="g" d="M16.2,5.97l-1.4.42c-.42-.45-.95-.69-1.53-.69h0c-.06,0-.12.01-.18.02-.4-.27-.55-.64-.38-.98.28.36.77.44,1.07.2.37-.29.36-.77.16-1.11-.24-.4-.88-.5-1.3-.24-.81.5-1.03,1.56-.45,2.35,0,0,0,0,0,0-.73.32-1.05.86-1.35,1.4-.46.8-.97,1.72-3.19,2.36-.32.09-.84.14-1.45.14-1.23,0-2.6-.2-3.18-.47-.68-.31-1.16-.66-1.66-1.03-.21-.15-.42-.31-.66-.47-.03-.02-.14-.1-.28-.1H.18l-.13.23c-.1.2-.19.37,1.07,2.11.08.11.17.22.25.34.53.7,1.08,1.41,1.92,3.77,1.03,2.89,3.13,4.06,4.76,4.18.17.01.33.02.48.02,1.58,0,2.78-.8,4.15-2.75,1.4-2,2.7-5.78,2.79-6.06.26-.66.24-1.48-.04-2.21l.91-1.24c.07-.1-.02-.24-.14-.2ZM13.93,7.56c-.19.19-.51.19-.7,0s-.19-.51,0-.7c.19-.19.51-.19.7,0,.19.19.19.51,0,.7Z"/>
  </g>
</svg>