<?xml version="1.0" encoding="utf-8"?>
<!-- Generator: Adobe Illustrator 27.8.1, SVG Export Plug-In . SVG Version: 6.00 Build 0)  -->
<svg version="1.1" xmlns="http://www.w3.org/2000/svg" xmlns:xlink="http://www.w3.org/1999/xlink" x="0px" y="0px"
	 viewBox="0 0 26 36" style="enable-background:new 0 0 26 36;" xml:space="preserve">
<style type="text/css">
	.st0{fill:#7BCED1;}
	.st1{fill:#F5F5F5;}
	.st2{fill:#FFFFFF;}
	.st3{fill:#F9AE40;}
	.st4{fill:#C7C8CA;}
	.st5{fill:#D81C5C;}
	.st6{stroke:#FFFFFF;stroke-width:1.25;stroke-miterlimit:10;}
	.st7{fill:#E3E0E4;}
	.st8{fill:#9FDCF3;}
	.st9{fill:#7A6A2B;}
	.st10{fill:#8F8EC5;}
	.st11{fill:#6FC5A2;}
	.st12{fill:#231F20;}
	.st13{fill:#D6D7D8;}
	.st14{fill:#C4E2D3;stroke:#33803A;stroke-width:0.25;stroke-miterlimit:10;}
	.st15{fill:#EF5A29;stroke:#33803A;stroke-width:0.25;stroke-miterlimit:10;}
	.st16{fill:#C4E2D3;stroke:#33803A;stroke-width:0.25;stroke-linecap:round;stroke-linejoin:round;stroke-miterlimit:10;}
	.st17{fill:#A7BFA9;stroke:#33803A;stroke-width:0.25;stroke-miterlimit:10;}
	.st18{fill:#EF5A29;stroke:#33803A;stroke-width:0.25;stroke-linecap:round;stroke-linejoin:round;stroke-miterlimit:10;}
	.st19{fill:#F5F5F5;stroke:#006838;stroke-width:0.15;stroke-miterlimit:10;}
	.st20{fill:#B03692;}
	.st21{fill:#00ACED;}
	.st22{fill:none;stroke:#00ACED;stroke-width:4;stroke-miterlimit:10;}
	.st23{fill:none;stroke:#231F20;stroke-width:2;stroke-miterlimit:10;}
	.st24{fill:none;stroke:#70CBCE;stroke-width:2;stroke-miterlimit:10;}
	.st25{fill:none;stroke:#231F20;stroke-width:2.4;stroke-miterlimit:10;}
	.st26{fill:none;stroke:#6FC5A2;stroke-miterlimit:10;}
	.st27{fill:#6FC5A2;stroke:#6FC5A2;stroke-miterlimit:10;}
	.st28{fill:none;}
	.st29{fill:#005230;}
	.st30{fill:#2E2AFF;}
	.st31{fill:#2526FF;}
	.st32{fill:none;stroke:#006938;stroke-width:0.15;stroke-miterlimit:10;}
	.st33{fill:#A9C1E3;}
	.st34{fill:none;stroke:#A9C1E3;stroke-miterlimit:10;}
	.st35{fill:none;stroke:#000000;stroke-miterlimit:10;}
	.st36{fill:#006838;}
</style>
<g id="Background">
</g>
<g id="plants">
	<g>
		<g>
			<g>
				<polygon class="st31" points="7.7,28.5 7.4,28.5 7,28.5 6.8,29.1 7.4,29.5 7.9,29.1 				"/>
			</g>
			<g>
				<path class="st31" d="M24.8,33.7l-2.3,0c-0.9,0-1.3-0.3-1.3-0.6c0-0.4,0.4-0.5,0.8-0.7c0.3,0.4,0.8,0.7,1.4,0.7
					c0.9,0,1.5-0.7,1.5-1.5c0-0.3,0-0.5-0.1-0.7l-0.1-0.2l0.8-0.5l-0.3-0.5l-0.8,0.6c0,0,0,0,0,0l0,0l0,0c-0.3-0.2-0.6-0.4-1-0.4
					c-1,0-1.6,0.8-1.6,1.6c0,0.1,0,0.3,0,0.4c-0.6,0.2-1.1,0.6-1.1,1.1c0,0.6,0.6,1.1,1.3,1.1l2.7,0c0.4,0,0.7,0.3,0.7,0.7
					s-0.3,0.7-0.7,0.7h-3V36h3c0.6,0,1.2-0.5,1.2-1.2C26,34.2,25.5,33.7,24.8,33.7z M23.4,30.4c0.7,0,1,0.5,1,1.1
					c0,0.6-0.4,1.1-1,1.1c-0.7,0-1.1-0.5-1.1-1.1C22.3,30.9,22.7,30.4,23.4,30.4z"/>
			</g>
			<g>
				<path class="st31" d="M11.7,30.1c0.9-0.5,2.2-0.1,2.8,1l0.1,0.2l-3.3,1.9c0.5,0.8,1.5,1.1,2.4,0.6c0.7-0.4,1.1-1.1,1-2l0.5,0
					c0,1.3-0.5,2-1.3,2.5c-1,0.6-2.4,0.3-3.1-0.9C10.2,32,10.7,30.7,11.7,30.1z M12,30.5c-0.9,0.5-1.1,1.5-0.8,2.2l2.8-1.6
					C13.5,30.5,12.7,30.1,12,30.5z"/>
			</g>
			<g>
				<path class="st31" d="M16.8,31.6l0.3-0.2l0.6-0.3l0.7-0.4l0.3-0.2c0,0,0,0,0.1,0c0.3,0,0.5,0.3,0.5,0.6v2.8h-0.8v0.5h2.1v-0.5
					h-0.8v-2.7c0-0.5-0.2-0.8-0.5-1c-0.1-0.1-0.3-0.2-0.5-0.2c0,0-0.1,0-0.1,0c0,0-0.1,0-0.1,0l-0.7,0.4L17,30.9L16.8,31v-0.2
					c0-0.8-0.3-0.9-0.7-0.9c-0.3,0-0.5,0.2-0.8,0.7l0,0l-0.1,0.1l0.4,0.2c0.1-0.1,0.1-0.2,0.2-0.2c0.2-0.2,0.2-0.3,0.3-0.3
					c0.1,0,0.2,0.1,0.2,0.4v3.2l-0.8,0v0.5h2.1v-0.5l-0.8,0V31.6z"/>
			</g>
			<g>
				<circle class="st31" cx="3.1" cy="29" r="0.5"/>
			</g>
			<g>
				<path class="st31" d="M3.3,33v-3.1H2.8l-2.3,1v0.5l2.3-1v2.5c-1.1-0.1-1.9,0.2-2.4,0.7C0,33.9-0.1,34.4,0,34.9
					C0.2,35.6,0.9,36,1.7,36c0.1,0,0.2,0,0.3,0c0.7-0.1,1.4-0.6,1.4-1.7v-0.8c0.1,0,0.2,0,0.4,0.1L4,33.1C3.7,33,3.5,33,3.3,33z
					 M2.8,34.3c0,1-0.6,1.2-1,1.2c-0.6,0.1-1.2-0.2-1.3-0.7c-0.1-0.3,0-0.7,0.2-0.9c0.3-0.3,0.9-0.5,1.7-0.5c0.1,0,0.2,0,0.4,0V34.3
					z"/>
			</g>
			<g>
				<path class="st31" d="M8.2,33.1C8,33,7.8,33,7.6,33v-3.1H7.1l-2.3,1v0.5l2.3-1v2.5c-1.1-0.1-1.9,0.2-2.4,0.7
					c-0.3,0.4-0.5,0.9-0.3,1.4C4.5,35.6,5.2,36,6,36c0.1,0,0.2,0,0.3,0c0.7-0.1,1.4-0.6,1.4-1.7v-0.8c0.1,0,0.2,0,0.4,0.1L8.2,33.1
					L8.2,33.1z M7.1,34.3c0,1-0.6,1.2-1,1.2c-0.6,0.1-1.2-0.2-1.3-0.7c-0.1-0.3,0-0.7,0.2-0.9c0.3-0.3,0.9-0.5,1.7-0.5
					c0.1,0,0.2,0,0.4,0V34.3z"/>
			</g>
		</g>
		<g>
			<g>
				<path class="st31" d="M25.5,14.7c-0.8-3.2-2.3-5.8-2.6-6.3c-0.1-0.4-0.1-0.8-0.1-1.2C22.7,6,22.6,4.7,22,3.8
					c0.7-0.7,0.9-1.3,0.9-1.8C23,0.9,22.1,0,21,0c-0.6,0-1.1,0.5-1.1,1.1c0,0.5,0.3,0.9,0.9,1c0.4,0,0.9-0.3,0.9-0.9
					c0.6,0.3,0.5,1.2-0.2,1.9c0,0,0,0-0.1-0.1c-0.4-0.3-1.1-0.5-1.7-0.5c-1.1,0-1.9,0.5-2.3,1.5l-1.9,0c-0.2,0-0.2,0.2-0.1,0.3
					l1.8,1c0,0.3,0.2,0.6,0.3,0.9c0.3,0.8,0.7,1.8-0.5,4.5c-0.3,0.8-2.4,5.1-3.7,7.1c-1.1,1.6-2.6,2.5-4.4,2.5c-0.3,0-0.7,0-1-0.1
					c-0.5-0.1-0.9-0.2-1.1-0.2c-0.2,0-0.3-0.1-0.3-0.1H6l-0.1,0.3c-0.1,0.3,0.2,0.5,0.4,0.6C6.5,20.9,6.7,21,7,21.2
					c0.6,0.4,4.1,1.4,5.6,1.6c0.3,0,0.9,0.4,1.5,0.8c1.4,0.9,3.4,2.1,5.6,2.1c1.2,0,2.3-0.3,3.3-1C25.8,22.8,26.7,19.3,25.5,14.7z
					 M19.5,5.2l-0.7-0.5l0.3-0.8h0.4h0.4l0.3,0.8L19.5,5.2z"/>
			</g>
			<g>
				<g>
					<path class="st31" d="M16.2,5.9l-1.4,0.4c-0.4-0.4-1-0.7-1.5-0.7h0c-0.1,0-0.1,0-0.2,0c-0.4-0.3-0.6-0.6-0.4-1
						C13,5,13.5,5.1,13.8,4.8c0.4-0.3,0.4-0.8,0.2-1.1c-0.2-0.4-0.9-0.5-1.3-0.2c-0.8,0.5-1,1.6-0.4,2.4c0,0,0,0,0,0
						c-0.7,0.3-1.1,0.9-1.4,1.4c-0.5,0.8-1,1.7-3.2,2.4C7.3,9.7,6.8,9.7,6.2,9.7C5,9.7,3.6,9.5,3,9.3c-0.7-0.3-1.2-0.7-1.7-1
						C1.2,8.1,1,7.9,0.7,7.7c0,0-0.1-0.1-0.3-0.1H0.2L0.1,7.9C0,8.1-0.1,8.3,1.1,10c0.1,0.1,0.2,0.2,0.3,0.3
						c0.5,0.7,1.1,1.4,1.9,3.8c1,2.9,3.1,4.1,4.8,4.2c0.2,0,0.3,0,0.5,0c1.6,0,2.8-0.8,4.1-2.8c1.4-2,2.7-5.8,2.8-6.1
						c0.3-0.7,0.2-1.5,0-2.2L16.3,6C16.4,5.9,16.3,5.8,16.2,5.9z M13.9,7.4c-0.2,0.2-0.5,0.2-0.7,0c-0.2-0.2-0.2-0.5,0-0.7
						c0.2-0.2,0.5-0.2,0.7,0C14.1,6.9,14.1,7.2,13.9,7.4z"/>
				</g>
			</g>
		</g>
	</g>
</g>
<g id="Plant_box_outline">
</g>
<g id="Layer_4">
</g>
<g id="Layer_5">
</g>
</svg>
